<svg id="Layer_1" data-name="Layer 1" xmlns="http://www.w3.org/2000/svg" width="708.24" height="120.59" viewBox="0 0 708.24 120.59"><path d="M42,60.93H89.63V82.49H42V125H14.32V18.74H94.25V40.3H42Z" transform="translate(-14.32 -11.8)"/><path d="M131.36,97.43,122.43,125H93L131.36,18.74h33.88L203.59,125H173.4l-8.93-27.57Zm6.78-21.56h19.71L148,43.22Z" transform="translate(-14.32 -11.8)"/><path d="M318.78,114.84l-13.24,17.55c-9.86-6-14.63-7.7-21.87-7.7a46.64,46.64,0,0,0-11.25,1.39,48.7,48.7,0,0,1-10.93,1.08c-33.11,0-54.36-21.26-54.36-55.29,0-34.19,21.25-55.44,54.36-55.44s54.36,21.25,54.36,55.44c0,12.93-4.46,25.1-13.55,33.57C308,107.14,313.08,110.06,318.78,114.84Zm-57.29-8c16,0,26-12.48,26-35,0-22.64-10-35.12-26-35.12s-26,12.48-26,35.12C235.46,94.35,245.47,106.83,261.49,106.83Z" transform="translate(-14.32 -11.8)"/><path d="M442.44,125H414.72V113l-6.16,9.08c-4.62,3.39-12.63,5.09-20.95,5.09-22.33,0-36.19-17.1-36.19-41.43,0-29.26,17.87-45.13,39-45.13,6.78,0,14.79,1.54,18.95,4l5.39,8.78V11.8h27.72ZM414.72,85V81.42c0-16.48-8.47-22-16.79-22-10.78,0-18.17,8.17-18.17,25,0,15.4,7.7,24,17.4,24C407.33,108.37,414.72,102.21,414.72,85Z" transform="translate(-14.32 -11.8)" fill="#0770ef"/><path d="M539.15,90.81H481.86c1.38,13.71,7.39,17.56,15.25,17.56s12.62-4,13.7-10.32h27.26c-4.77,18.63-20.17,29.11-41.27,29.11-23.57,0-42.35-14-42.35-43,0-24,16.47-43.59,43.89-43.59s41.27,20.95,41.27,42.2A73.4,73.4,0,0,1,539.15,90.81ZM482.78,73.87h27.88c-1.54-9.7-6.32-14.48-13.71-14.48S484.63,63.71,482.78,73.87Z" transform="translate(-14.32 -11.8)" fill="#0770ef"/><path d="M620,66.79H592.74c-1.23-5.7-4-8.94-8.93-8.94-3.85,0-6.63,2.47-6.63,6,0,4.62,3.7,7.7,19.41,11.55,14.94,3.7,25.56,10.16,25.56,26,0,17.55-16.47,25.72-36.34,25.72-22.33,0-37.58-9.24-39.73-27.72h27.25c1.54,6.31,6.47,10.47,12.32,10.47,4.93,0,8.78-2,8.78-6.32,0-5.23-5.23-8.16-19.86-11.55-15.71-3.69-25.11-10.93-25.11-25,0-16.32,14.17-26.49,36-26.49C606,40.6,617.84,51.85,620,66.79Z" transform="translate(-14.32 -11.8)" fill="#0770ef"/><path d="M660.65,101v24H632.93V11.8h27.72V77.26l29-34.5H722.1L687.3,80.49,722.56,125h-34l-22-30.49Z" transform="translate(-14.32 -11.8)" fill="#0770ef"/></svg>