<svg id="a80b532e-c929-440b-8aed-6e8ba21530d4" data-name="Layer 1" xmlns="http://www.w3.org/2000/svg" width="169.19" height="150.5" viewBox="0 0 169.19 150.5"><path d="M29.07,22V63.38L56.65,22H76.38L55.25,53.45,81.66,110H59L41.41,71.82l-12.34,18V110H8.83V22Z" fill="#0b0c0c"/><path d="M92,22h41q11,0,16.57,2.71a24.17,24.17,0,0,1,9.15,7.73,20.44,20.44,0,0,1,3.61,12.23q0,14.63-15.86,19.52,9.15,2.05,13.73,8.19a21.83,21.83,0,0,1,4.58,13.35,22.89,22.89,0,0,1-7.48,17.06Q149.86,110,133,110H92ZM112.6,37.58V56.85h15.6q8.56,0,10.79-3.39A11.79,11.79,0,0,0,141.22,47a9.28,9.28,0,0,0-1.84-5.77,7.84,7.84,0,0,0-4-3,38.77,38.77,0,0,0-8.64-.61Zm0,34.93v21.2h15.82q8.1,0,11.45-2.83A10.54,10.54,0,0,0,140,75.6q-3.23-3.09-10.68-3.09Z" fill="#0770ef"/></svg>